<?xml version="1.0" standalone="no"?>
<!DOCTYPE svg PUBLIC "-//W3C//DTD SVG 20010904//EN"
 "http://www.w3.org/TR/2001/REC-SVG-20010904/DTD/svg10.dtd">
<svg version="1.0" xmlns="http://www.w3.org/2000/svg"
 width="500.000000pt" height="500.000000pt" viewBox="0 0 500.000000 500.000000"
 preserveAspectRatio="xMidYMid meet">

<g transform="translate(0.000000,500.000000) scale(0.100000,-0.100000)"
fill="#000000" stroke="none">
<path d="M1057 3184 c-12 -13 -8 -62 6 -67 23 -9 39 9 35 39 -3 27 -26 43 -41
28z"/>
<path d="M607 3126 c-8 -20 21 -56 44 -56 21 0 25 21 9 51 -12 22 -45 25 -53
5z"/>
<path d="M1490 3121 c-15 -30 -12 -51 8 -51 25 0 56 35 49 55 -9 21 -44 19
-57 -4z"/>
<path d="M1061 3091 c-8 -5 -11 -34 -9 -92 3 -76 5 -84 23 -84 18 0 20 8 23
86 2 66 0 88 -11 92 -8 3 -19 2 -26 -2z"/>
<path d="M673 3054 c-8 -21 9 -50 67 -113 42 -46 52 -52 65 -41 8 7 15 16 15
21 0 13 -119 149 -131 149 -5 0 -12 -7 -16 -16z"/>
<path d="M1390 2998 c-33 -39 -60 -75 -60 -79 0 -3 7 -13 16 -20 15 -12 22 -8
57 31 78 88 91 109 77 125 -7 8 -16 15 -21 15 -4 0 -35 -32 -69 -72z"/>
<path d="M426 2818 c-45 -157 -96 -362 -96 -383 0 -25 7 -29 130 -61 36 -10
93 -18 128 -19 59 -2 66 -4 105 -42 68 -66 207 -138 325 -167 109 -28 127 -26
155 15 11 14 44 28 113 45 113 29 114 30 203 95 37 27 78 49 90 49 33 0 224
52 238 64 10 9 1 58 -43 226 -31 118 -60 219 -65 224 -9 10 -90 -6 -206 -40
-45 -13 -53 -19 -53 -40 0 -13 -3 -24 -8 -24 -4 0 -54 14 -112 30 -58 17 -113
30 -123 30 -10 0 -52 -14 -92 -31 -61 -25 -77 -28 -95 -19 -25 13 -49 9 -140
-26 l-65 -25 -55 19 c-46 16 -56 23 -58 45 -2 14 -11 28 -20 31 -61 19 -210
56 -224 56 -12 0 -22 -15 -32 -52z m132 -24 c37 -9 71 -20 75 -24 8 -7 -75
-345 -87 -357 -5 -5 -131 25 -152 36 -8 4 3 58 33 171 50 190 50 190 58 190 3
0 36 -7 73 -16z m1163 -164 l47 -179 -54 -16 c-29 -8 -66 -18 -82 -21 l-28 -6
-47 178 c-26 97 -45 180 -41 183 6 7 121 39 144 40 11 1 27 -44 61 -179z
m-370 99 c58 -17 110 -34 115 -37 6 -4 26 -69 46 -144 l36 -138 -85 -61 c-120
-87 -225 -115 -143 -39 18 17 30 38 30 54 0 14 5 26 10 26 24 0 60 50 60 82
-1 59 -21 74 -155 108 -49 13 -99 31 -110 41 -20 18 -24 17 -130 -16 -110 -35
-135 -34 -135 2 0 22 299 165 330 158 14 -3 73 -19 131 -36z m-611 -39 c28
-11 61 -20 75 -20 13 0 44 9 70 20 55 24 72 26 30 3 -73 -38 -95 -90 -60 -140
25 -36 66 -38 156 -8 l81 27 122 -32 c136 -37 156 -45 156 -64 0 -35 -25 -34
-165 4 -77 20 -146 35 -153 32 -7 -2 -12 -14 -10 -25 2 -17 23 -26 119 -53
129 -35 139 -39 139 -58 0 -35 -25 -35 -149 0 -136 38 -166 40 -166 9 0 -16
18 -25 114 -51 120 -34 137 -43 128 -68 -8 -21 -29 -20 -105 4 -72 22 -108 25
-118 9 -10 -17 12 -33 69 -49 33 -10 53 -22 55 -33 5 -23 -19 -22 -122 8 -102
30 -223 94 -280 151 -27 26 -55 43 -79 48 -20 4 -37 12 -37 19 0 15 72 287 76
287 2 0 26 -9 54 -20z"/>
<path d="M1945 2790 c-3 -5 -9 -108 -11 -228 l-6 -218 55 -2 c66 -2 85 11 97
63 14 62 11 229 -4 250 -10 14 -11 28 -3 57 7 30 6 43 -7 63 -14 21 -24 25
-66 25 -27 0 -52 -4 -55 -10z m88 -41 c5 -9 7 -28 3 -42 -5 -20 -13 -27 -31
-27 -22 0 -25 4 -25 38 0 21 3 42 7 46 11 10 35 3 46 -15z m15 -210 c3 -129
-6 -159 -48 -159 l-30 0 0 113 c0 146 4 159 44 155 l31 -3 3 -106z"/>
<path d="M2864 2785 c-9 -22 0 -418 10 -433 21 -33 30 10 27 127 -4 174 19
171 79 -11 30 -91 61 -140 77 -124 4 4 1 21 -6 39 -7 18 -24 67 -37 110 -13
42 -29 87 -35 99 -9 17 -8 23 5 30 25 14 23 131 -4 158 -25 25 -107 29 -116 5z
m85 -28 c18 -22 24 -73 12 -96 -7 -13 -21 -21 -36 -21 -24 0 -25 3 -25 65 0
57 2 65 19 65 10 0 24 -6 30 -13z"/>
<path d="M2682 2782 c-52 -2 -72 -6 -69 -15 2 -7 19 -14 38 -17 l34 -5 -3
-203 c-4 -194 -3 -204 15 -200 16 3 19 19 24 193 4 105 7 196 8 203 0 6 14 12
30 12 26 0 50 15 40 24 -10 9 -51 11 -117 8z"/>
<path d="M3402 2780 c-42 -17 -52 -65 -52 -238 0 -148 1 -160 21 -178 21 -19
78 -25 112 -11 30 12 9 27 -38 27 -24 0 -47 6 -51 12 -13 20 -4 331 9 347 7 8
24 11 49 8 37 -5 59 7 42 23 -15 14 -68 19 -92 10z"/>
<path d="M3982 2783 c-39 -7 -49 -47 -57 -221 -6 -140 -5 -166 9 -187 19 -29
70 -41 109 -26 42 16 32 31 -23 31 -45 0 -50 2 -56 27 -11 42 4 313 17 330 8
9 26 13 47 11 32 -3 55 13 35 25 -15 8 -58 14 -81 10z"/>
<path d="M2195 2766 c-22 -16 -32 -106 -34 -287 -1 -79 2 -99 17 -112 38 -35
109 -29 131 11 5 10 13 95 17 188 l7 170 -28 22 c-32 25 -82 29 -110 8z m93
-176 c2 -80 0 -160 -3 -178 -6 -31 -8 -33 -43 -30 l-37 3 -3 155 c-3 197 -2
202 46 198 l37 -3 3 -145z"/>
<path d="M2433 2768 c-6 -7 -13 -65 -17 -128 -3 -63 -9 -159 -12 -214 -7 -93
-6 -98 12 -94 17 3 20 18 29 158 l10 155 26 3 27 3 7 -153 c4 -84 11 -161 16
-170 12 -22 65 -24 72 -3 7 16 -8 29 -22 20 -18 -10 -22 15 -32 212 -11 218
-12 223 -75 223 -17 0 -36 -6 -41 -12z m69 -35 c7 -30 -3 -53 -23 -53 -15 0
-19 7 -19 35 0 28 4 35 19 35 11 0 21 -8 23 -17z"/>
<path d="M3139 2761 c-23 -18 -24 -26 -30 -188 -3 -92 -3 -177 2 -189 10 -28
60 -48 99 -39 50 11 59 46 61 235 2 159 2 164 -20 182 -30 23 -82 23 -112 -1z
m95 -38 c3 -10 2 -90 -2 -178 l-7 -160 -28 -3 c-56 -7 -59 5 -51 182 3 89 8
164 11 169 2 4 19 7 38 7 23 0 35 -5 39 -17z"/>
<path d="M3589 2764 c-8 -10 -14 -53 -16 -122 -1 -59 -7 -149 -13 -200 -11
-96 -8 -112 14 -112 14 0 20 42 32 223 l7 98 26 -3 26 -3 8 -145 c9 -191 10
-192 50 -188 22 2 33 9 35 22 3 15 0 18 -16 14 -18 -5 -21 1 -26 56 -3 33 -8
124 -12 201 -5 105 -10 144 -22 158 -19 21 -75 22 -93 1z m71 -50 c0 -31 -3
-35 -22 -32 -17 2 -22 9 -21 31 1 38 1 37 23 37 16 0 20 -7 20 -36z"/>
<path d="M4167 2758 c-23 -23 -24 -32 -31 -192 -8 -192 -3 -210 60 -222 44 -8
86 19 95 62 4 16 7 97 8 180 1 171 -3 182 -66 191 -35 5 -45 2 -66 -19z m93
-185 c0 -93 -4 -174 -9 -181 -5 -8 -22 -12 -42 -10 l-34 3 1 161 c0 88 4 168
7 177 4 12 18 17 42 17 l35 0 0 -167z"/>
<path d="M4384 2769 c-4 -6 -3 -95 0 -198 5 -129 4 -195 -4 -215 -13 -35 -7
-58 15 -50 28 11 38 82 31 239 l-6 150 18 -45 c24 -61 47 -64 64 -8 12 40 13
28 16 -140 3 -192 6 -204 48 -188 13 5 14 9 4 21 -10 12 -13 68 -11 218 1 120
-3 208 -8 217 -16 23 -42 1 -59 -50 l-15 -44 -23 52 c-17 38 -28 52 -43 52
-11 0 -23 -5 -27 -11z"/>
<path d="M3792 2408 c-26 -26 1 -65 38 -53 14 4 20 15 20 36 0 24 -4 29 -23
29 -13 0 -28 -5 -35 -12z"/>
<path d="M718 2029 c-56 -69 -65 -99 -29 -99 23 0 134 136 127 155 -11 31 -43
13 -98 -56z"/>
<path d="M1337 2085 c-8 -18 102 -155 124 -155 36 0 27 31 -28 100 -54 68 -85
86 -96 55z"/>
<path d="M1054 2067 c-3 -8 -4 -47 -2 -88 3 -66 5 -74 23 -74 18 0 20 8 23 88
3 82 2 87 -18 87 -11 0 -23 -6 -26 -13z"/>
<path d="M615 1906 c-19 -28 -13 -46 14 -46 24 0 44 24 39 47 -5 28 -35 27
-53 -1z"/>
<path d="M1487 1923 c-14 -13 -6 -42 15 -57 19 -14 24 -14 37 -2 12 13 12 18
-3 40 -16 25 -36 33 -49 19z"/>
<path d="M1054 1866 c-10 -26 1 -51 21 -51 15 0 21 8 23 33 3 27 0 32 -18 32
-11 0 -23 -6 -26 -14z"/>
</g>
</svg>
